<?xml version="1.0" encoding="UTF-8" standalone="no"?>
<svg
   xmlns:dc="http://purl.org/dc/elements/1.1/"
   xmlns:cc="http://creativecommons.org/ns#"
   xmlns:rdf="http://www.w3.org/1999/02/22-rdf-syntax-ns#"
   xmlns:svg="http://www.w3.org/2000/svg"
   xmlns="http://www.w3.org/2000/svg"
   xml:space="preserve"
   style="enable-background:new 0 0 512 512;"
   viewBox="0 0 512 512"
   y="0px"
   x="0px"
   id="Layer_3"
   version="1.1"><metadata
     id="metadata9"><rdf:RDF><cc:Work
         rdf:about=""><dc:format>image/svg+xml</dc:format><dc:type
           rdf:resource="http://purl.org/dc/dcmitype/StillImage" /><dc:title></dc:title></cc:Work></rdf:RDF></metadata><defs
     id="defs7" /><path
     id="path2"
     d="M256,40.6C137,40.6,40.6,137,40.6,256S137,471.4,256,471.4S471.4,375,471.4,256S375,40.6,256,40.6z M328.2,149.6l-11.1,19.2  l-147,0.2l74,126.4l-11.7,20.2L137,149.9L328.2,149.6z M233,396.9l-95.8-165.5h22.1L233,358.7l72.5-127.2h23.4L233,396.9z   M303.6,356.6l-11.1-19.2L365.9,210l-146.4,0.9l-11.7-20.2l191.2,0.2L303.6,356.6z" /><path
     id="path11"
     d="m 298.258,347.00774 c -2.8476,-4.95026 -5.22064,-9.20902 -5.27342,-9.46392 -0.0528,-0.25489 16.36541,-29.02576 36.48487,-63.93527 l 36.58082,-63.47182 -4.46132,-0.12727 c -2.45372,-0.07 -35.33213,0.0722 -73.06313,0.31593 -37.73099,0.24376 -68.74127,0.30103 -68.91173,0.12727 -0.26235,-0.26745 -10.0541,-16.96601 -11.16401,-19.03879 -0.36088,-0.67395 2.85137,-0.68849 94.67008,-0.42851 52.274,0.14801 95.10654,0.3235 95.18343,0.38998 0.16507,0.14273 -93.81239,163.52058 -94.43977,164.18156 -0.32078,0.33795 -1.72868,-1.80917 -5.60582,-8.54916 z"
     style="fill:#ffffff;stroke-width:0.38351554" /><path
     id="path13"
     d="m 185.88795,315.15044 c -25.83936,-44.62592 -47.28818,-81.7236 -47.66405,-82.43931 l -0.68339,-1.30127 10.83153,0.10187 10.83153,0.10187 36.74514,63.47182 c 20.20983,34.90951 36.87076,63.51036 37.02428,63.55745 0.15352,0.0471 16.40729,-28.22795 36.11949,-62.83342 19.7122,-34.60547 36.0212,-63.16594 36.24222,-63.46772 0.33584,-0.45856 2.26287,-0.53193 11.7314,-0.44665 l 11.32954,0.10204 -47.45077,81.83628 c -26.09793,45.00996 -47.59152,81.97551 -47.76352,82.14568 -0.17202,0.17016 -21.45404,-36.20272 -47.2934,-80.82864 z"
     style="fill:#ffffff;stroke-width:0.38351554" /><path
     id="path15"
     d="m 231.61187,313.80342 c -2.66498,-4.38458 -94.06873,-163.40704 -93.97324,-163.49282 0.065,-0.0583 42.88927,-0.23266 95.16512,-0.38737 l 95.04701,-0.28129 -0.78348,1.48373 c -0.43091,0.81605 -2.8381,5.02166 -5.34931,9.3458 l -4.56583,7.86207 -39.84068,0.23237 c -21.91237,0.1278 -55.00321,0.25724 -73.53519,0.28763 -31.09569,0.051 -33.67586,0.10392 -33.4525,0.68598 0.13312,0.34689 16.32077,28.08945 35.97257,61.65012 19.65179,33.56068 36.14312,61.75137 36.6474,62.64598 l 0.91685,1.62656 -5.27659,9.11187 c -6.85341,11.83481 -6.04165,10.76024 -6.97213,9.22937 z"
     style="fill:#ffffff;stroke-width:0.38351554" /></svg>