<?xml version="1.0" encoding="utf-8"?>
<svg version="1.1" id="Layer_3" xmlns="http://www.w3.org/2000/svg" xmlns:xlink="http://www.w3.org/1999/xlink" x="0px" y="0px"
	 viewBox="0 0 512 512" style="enable-background:new 0 0 512 512;" xml:space="preserve">
<path d="M256,40.6C137,40.6,40.6,137,40.6,256S137,471.4,256,471.4S471.4,375,471.4,256S375,40.6,256,40.6z M328.2,149.6l-11.1,19.2
	l-147,0.2l74,126.4l-11.7,20.2L137,149.9L328.2,149.6z M233,396.9l-95.8-165.5h22.1L233,358.7l72.5-127.2h23.4L233,396.9z
	 M303.6,356.6l-11.1-19.2L365.9,210l-146.4,0.9l-11.7-20.2l191.2,0.2L303.6,356.6z"/>
</svg>
